<?xml version="1.0" encoding="UTF-8" standalone="no"?>
<!DOCTYPE svg PUBLIC "-//W3C//DTD SVG 1.1//EN" "http://www.w3.org/Graphics/SVG/1.1/DTD/svg11.dtd">
<svg width="100%" height="100%" viewBox="0 0 555 502" version="1.1" xmlns="http://www.w3.org/2000/svg" xmlns:xlink="http://www.w3.org/1999/xlink" xml:space="preserve" xmlns:serif="http://www.serif.com/" style="fill-rule:evenodd;clip-rule:evenodd;stroke-linejoin:round;stroke-miterlimit:1.41421;">
    <g id="v" transform="matrix(-1.31262,0,-0,1.31262,692.922,-154.412)">
        <g transform="matrix(1,0,0,1,2,0)">
            <path d="M319.601,370.527L319.601,443.803L424.952,430.668L440.356,355.368L481.65,337.45L411.762,337.45L387.262,370.527" style="fill:rgb(222,16,0);"/>
        </g>
        <g transform="matrix(-1,0,0,1,631.251,0)">
            <path d="M319.601,370.527L319.601,443.803L424.952,430.668L440.356,355.368L481.65,337.45L411.762,337.45L387.262,370.527" style="fill:rgb(222,16,0);"/>
        </g>
    </g>
    <g id="OCF" transform="matrix(-1.70421,0.37834,0.37834,1.70421,818.394,-196.412)">
        <g transform="matrix(0.687793,-0.245179,0.245179,0.687793,79.7472,109.898)">
            <path d="M358.671,45.716C375.289,51.64 383.971,69.941 378.047,86.559C372.123,103.177 353.822,111.86 337.204,105.936C320.585,100.012 311.903,81.711 317.827,65.092C323.751,48.474 342.052,39.792 358.671,45.716ZM354.483,57.462C364.619,61.075 369.914,72.237 366.301,82.372C362.688,92.507 351.526,97.803 341.391,94.19C331.255,90.577 325.96,79.415 329.573,69.28C333.186,59.144 344.348,53.849 354.483,57.462Z" style="fill:rgb(235,235,235);"/>
        </g>
        <g transform="matrix(1,0,0,1,292.359,32.3776)">
            <path d="M90.772,66.479C88.422,67.275 85.905,67.707 83.287,67.707C70.405,67.707 59.946,57.248 59.946,44.366C59.946,31.483 70.405,21.025 83.287,21.025C85.905,21.025 88.422,21.456 90.772,22.252L90.772,66.479Z" style="fill:rgb(235,235,235);"/>
        </g>
        <g transform="matrix(0.835802,1.62185e-16,-2.02822e-16,1.34199,300.711,6.01471)">
            <rect x="61.324" y="43.199" width="11.193" height="29.742" style="fill:rgb(235,235,235);"/>
        </g>
    </g>
    <g id="body" transform="matrix(-2.66667,0,0,2.66667,4945.73,-3485.44)">
        <path d="M1812.26,1394.35C1812.26,1379.1 1806.73,1365.15 1797.58,1354.37C1802.26,1352.42 1805.56,1347.81 1805.56,1342.43C1805.56,1335.3 1799.78,1329.51 1792.64,1329.51C1786.34,1329.51 1781.1,1334.03 1779.96,1340C1771.18,1335.22 1761.11,1332.5 1750.41,1332.5C1739.61,1332.5 1729.47,1335.27 1720.63,1340.13C1719.54,1334.1 1714.28,1329.51 1707.93,1329.51C1700.8,1329.51 1695.01,1335.3 1695.01,1342.43C1695.01,1347.88 1698.4,1352.54 1703.17,1354.43C1694.06,1365.2 1688.56,1379.13 1688.56,1394.35L1678.12,1494.95L1823.19,1494.95L1812.26,1394.35Z" style="fill:rgb(113,112,113);fill-rule:nonzero;"/>
    </g>
    <g id="wing" transform="matrix(-1,0,-0,1,591.812,-15.6699)">
        <path d="M333.187,337.843L333.187,454.94C333.187,454.94 539.903,327.577 564.872,337.843C589.841,348.11 578.121,397.456 588.328,361.19C597.251,329.486 588.894,274.098 564.872,250.303C534.627,220.346 562.413,255.335 548.606,270.308C534.799,285.281 333.187,337.843 333.187,337.843Z" style="fill:rgb(142,28,0);"/>
        <g transform="matrix(-1,0,0,1,628.999,0)">
            <path d="M333.187,337.843L333.187,454.94C333.187,454.94 539.903,327.577 564.872,337.843C589.841,348.11 578.121,397.456 588.328,361.19C597.251,329.486 588.894,274.098 564.872,250.303C534.627,220.346 562.413,255.335 548.606,270.308C534.799,285.281 333.187,337.843 333.187,337.843Z" style="fill:rgb(142,28,0);"/>
        </g>
    </g>
    <g id="tail" transform="matrix(1,0,0,1,0.229403,-0.995074)">
        <circle cx="277.083" cy="480.63" r="13.478" style="fill:rgb(158,158,159);"/>
    </g>
</svg>
