<?xml version="1.0" encoding="UTF-8" standalone="no"?>
<!DOCTYPE svg PUBLIC "-//W3C//DTD SVG 1.1//EN" "http://www.w3.org/Graphics/SVG/1.1/DTD/svg11.dtd">
<svg width="100%" height="100%" viewBox="0 0 555 502" version="1.1" xmlns="http://www.w3.org/2000/svg" xmlns:xlink="http://www.w3.org/1999/xlink" xml:space="preserve" xmlns:serif="http://www.serif.com/" style="fill-rule:evenodd;clip-rule:evenodd;stroke-linecap:square;stroke-linejoin:round;stroke-miterlimit:1.5;">
    <g transform="matrix(1,0,0,1,-37.1873,-15.6699)">
        <path d="M333.187,337.843L333.187,454.94C333.187,454.94 539.903,327.577 564.872,337.843C589.841,348.11 578.121,397.456 588.328,361.19C597.251,329.486 588.894,274.098 564.872,250.303C534.627,220.346 562.413,255.335 548.606,270.308C534.799,285.281 333.187,337.843 333.187,337.843Z" style="fill:rgb(142,28,0);"/>
        <g transform="matrix(-1,0,0,1,628.999,0)">
            <path d="M333.187,337.843L333.187,454.94C333.187,454.94 539.903,327.577 564.872,337.843C589.841,348.11 578.121,397.456 588.328,361.19C597.251,329.486 588.894,274.098 564.872,250.303C534.627,220.346 562.413,255.335 548.606,270.308C534.799,285.281 333.187,337.843 333.187,337.843Z" style="fill:rgb(142,28,0);"/>
        </g>
    </g>
    <g id="body" transform="matrix(1,0,0,1,-37.6529,-15.6699)">
        <g transform="matrix(2.66667,0,0,2.66667,-4353.45,-3469.77)">
            <path d="M1812.26,1394.35C1812.26,1379.1 1806.73,1365.15 1797.58,1354.37C1802.26,1352.42 1805.56,1347.81 1805.56,1342.43C1805.56,1335.3 1799.78,1329.51 1792.64,1329.51C1786.34,1329.51 1781.1,1334.03 1779.96,1340C1771.18,1335.22 1761.11,1332.5 1750.41,1332.5C1739.61,1332.5 1729.47,1335.27 1720.63,1340.13C1719.54,1334.1 1714.28,1329.51 1707.93,1329.51C1700.8,1329.51 1695.01,1335.3 1695.01,1342.43C1695.01,1347.88 1698.4,1352.54 1703.17,1354.43C1694.06,1365.2 1688.56,1379.13 1688.56,1394.35L1678.12,1494.95L1823.19,1494.95L1812.26,1394.35Z" style="fill:rgb(113,112,113);fill-rule:nonzero;"/>
        </g>
        <g transform="matrix(2.66667,0,0,2.66667,-4348.81,-3469.77)">
            <path d="M1771.52,1406.87C1771.52,1417.1 1761.51,1425.4 1749.16,1425.4C1736.82,1425.4 1726.81,1417.1 1726.81,1406.87C1726.81,1396.64 1736.82,1388.35 1749.16,1388.35C1761.51,1388.35 1771.52,1396.64 1771.52,1406.87" style="fill:rgb(200,201,202);fill-rule:nonzero;"/>
        </g>
        <g transform="matrix(2.66667,0,0,2.66667,-4351.12,-3469.77)">
            <path d="M1758.1,1399.19C1758.1,1403.23 1754.48,1406.51 1750.03,1406.51C1745.57,1406.51 1741.96,1403.23 1741.96,1399.19C1741.96,1395.14 1745.57,1391.86 1750.03,1391.86C1754.48,1391.86 1758.1,1395.14 1758.1,1399.19" style="fill:rgb(113,112,113);fill-rule:nonzero;"/>
        </g>
        <g transform="matrix(2.66667,0,0,2.66667,-4353.81,-3467.77)">
            <path d="M1786.88,1344.48C1786.88,1344.48 1786.44,1333.71 1795.92,1336.66C1805.4,1339.61 1795.09,1350.82 1795.09,1350.82L1786.88,1344.48Z" style="fill:rgb(158,158,159);fill-rule:nonzero;"/>
        </g>
        <g transform="matrix(2.66667,0,0,2.66667,-4354.81,-3468.77)">
            <path d="M1714.24,1344.48C1714.24,1344.48 1714.68,1333.71 1705.2,1336.66C1695.72,1339.61 1706.03,1350.82 1706.03,1350.82L1714.24,1344.48Z" style="fill:rgb(158,158,159);fill-rule:nonzero;"/>
        </g>
    </g>
    <g id="eyes" transform="matrix(1,0,0,1,-38.0684,-15.6699)">
        <g id="eye">
            <g transform="matrix(1,0,0,1,-162.121,-0.232632)">
                <circle cx="397.502" cy="199.401" r="33.1" style="fill:rgb(89,87,87);"/>
            </g>
            <g transform="matrix(1.10273,0,0,1.10273,-27.0161,-24.643)">
                <circle cx="237.952" cy="202.961" r="21.104" style="fill:rgb(235,235,235);"/>
            </g>
        </g>
        <g id="eye1" serif:id="eye" transform="matrix(1,0,0,1,160,0)">
            <g transform="matrix(1,0,0,1,-162.121,-0.232632)">
                <circle cx="397.502" cy="199.401" r="33.1" style="fill:rgb(89,87,87);"/>
            </g>
            <g transform="matrix(1.10273,0,0,1.10273,-27.0161,-24.643)">
                <circle cx="237.952" cy="202.961" r="21.104" style="fill:rgb(235,235,235);"/>
            </g>
        </g>
    </g>
    <g id="tatoo-x" serif:id="tatoo(x" transform="matrix(1,0,0,1,-38.0841,-15.6699)">
        <g>
            <g transform="matrix(1,0,0,1,-2.06628,0)">
                <path d="M397.946,229.701L397.946,279.472L422.117,290.279L422.117,337.243" style="fill:none;stroke:rgb(89,87,87);stroke-width:10px;"/>
            </g>
            <g transform="matrix(1,0,0,1,378.939,142.541)">
                <circle cx="31.839" cy="100.599" r="4.998" style="fill:rgb(89,87,87);"/>
            </g>
            <g transform="matrix(1,0,0,1,378.939,168.541)">
                <circle cx="31.839" cy="100.599" r="4.998" style="fill:rgb(89,87,87);"/>
            </g>
            <g transform="matrix(1,0,0,1,400.939,199.541)">
                <circle cx="31.839" cy="100.599" r="4.998" style="fill:rgb(89,87,87);"/>
            </g>
        </g>
        <g transform="matrix(-1,0,0,1,630.793,0)">
            <g transform="matrix(1,0,0,1,-2.06628,0)">
                <path d="M397.946,229.701L397.946,279.472L422.117,290.279L422.117,337.243" style="fill:none;stroke:rgb(89,87,87);stroke-width:10px;"/>
            </g>
            <g transform="matrix(1,0,0,1,378.939,142.541)">
                <circle cx="31.839" cy="100.599" r="4.998" style="fill:rgb(89,87,87);"/>
            </g>
            <g transform="matrix(1,0,0,1,378.939,168.541)">
                <circle cx="31.839" cy="100.599" r="4.998" style="fill:rgb(89,87,87);"/>
            </g>
            <g transform="matrix(1,0,0,1,400.939,199.541)">
                <circle cx="31.839" cy="100.599" r="4.998" style="fill:rgb(89,87,87);"/>
            </g>
        </g>
    </g>
    <g id="v" transform="matrix(1.31262,0,0,1.31262,-138.297,-154.412)">
        <g transform="matrix(1,0,0,1,2,0)">
            <path d="M319.601,370.527L319.601,443.803L424.952,430.668L440.356,355.368L481.65,337.45L411.762,337.45L387.262,370.527" style="fill:rgb(222,16,0);"/>
        </g>
        <g transform="matrix(-1,0,0,1,631.251,0)">
            <path d="M319.601,370.527L319.601,443.803L424.952,430.668L440.356,355.368L481.65,337.45L411.762,337.45L387.262,370.527" style="fill:rgb(222,16,0);"/>
        </g>
    </g>
    <g id="mouth" transform="matrix(1,0,0,1,-36.7848,-15.6699)">
        <path d="M350.014,331.483L342.681,331.483L342.681,301.019L285.514,301.019L285.514,331.483L278.181,331.483L278.181,293.686L350.014,293.686L350.014,331.483Z" style="fill:rgb(113,112,113);"/>
    </g>
    <g id="OCF" transform="matrix(1.70421,0.37834,-0.37834,1.70421,-263.769,-196.412)">
        <g transform="matrix(0.687793,-0.245179,0.245179,0.687793,79.7472,109.898)">
            <path d="M358.671,45.716C375.289,51.64 383.971,69.941 378.047,86.559C372.123,103.177 353.822,111.86 337.204,105.936C320.585,100.012 311.903,81.711 317.827,65.092C323.751,48.474 342.052,39.792 358.671,45.716ZM354.483,57.462C364.619,61.075 369.914,72.237 366.301,82.372C362.688,92.507 351.526,97.803 341.391,94.19C331.255,90.577 325.96,79.415 329.573,69.28C333.186,59.144 344.348,53.849 354.483,57.462Z" style="fill:rgb(235,235,235);"/>
        </g>
        <g transform="matrix(1,0,0,1,292.359,32.3776)">
            <path d="M90.772,66.479C88.422,67.275 85.905,67.707 83.287,67.707C70.405,67.707 59.946,57.248 59.946,44.366C59.946,31.483 70.405,21.025 83.287,21.025C85.905,21.025 88.422,21.456 90.772,22.252L90.772,66.479Z" style="fill:rgb(235,235,235);"/>
        </g>
        <g transform="matrix(0.835802,1.62185e-16,-2.02822e-16,1.34199,300.711,6.01471)">
            <rect x="61.324" y="43.199" width="11.193" height="29.742" style="fill:rgb(235,235,235);"/>
        </g>
    </g>
</svg>
