<?xml version="1.0" encoding="UTF-8" standalone="no"?>
<!DOCTYPE svg PUBLIC "-//W3C//DTD SVG 1.1//EN" "http://www.w3.org/Graphics/SVG/1.1/DTD/svg11.dtd">
<svg width="100%" height="100%" viewBox="0 0 1024 1024" version="1.1" xmlns="http://www.w3.org/2000/svg" xmlns:xlink="http://www.w3.org/1999/xlink" xml:space="preserve" xmlns:serif="http://www.serif.com/" style="fill-rule:evenodd;clip-rule:evenodd;stroke-linejoin:round;stroke-miterlimit:1.41421;">
    <g id="funnel" transform="matrix(1.16779,-0.674227,0.674227,1.16779,-443.908,338.996)">
        <g id="outside">
            <path d="M622.122,671.247L622.122,907.263C613.983,908.821 603.955,909.718 593.122,909.718C565.741,909.718 543.511,903.99 543.511,896.934L543.511,673.159L542.896,673.159L231.141,318.282L825.906,318.282L622.122,671.247Z" style="fill:rgb(142,68,173);"/>
            <path d="M825.906,318.282L955.103,318.282L642.733,672.461L642.733,896.934C642.733,901.198 634.614,904.977 622.122,907.263L622.122,671.247L825.906,318.282Z" style="fill:rgb(180,125,204);"/>
        </g>
        <g id="inside">
            <g transform="matrix(0.866025,-0.5,0.5,0.866025,-233.844,421.511)">
                <path d="M593.122,110.327L593.122,292.505C493.375,216.6 435.812,145.212 454.888,112.172C468.827,88.028 520.964,89.088 593.122,110.327Z" style="fill:rgb(102,50,126);"/>
            </g>
            <path d="M334.978,220.497C402.449,204.108 493.278,194.083 593.122,194.083C801.158,194.083 970.058,237.605 970.058,291.212C970.058,344.818 801.158,388.34 593.122,388.34C533.14,388.34 476.413,384.722 426.067,378.267L334.978,220.497Z" style="fill:rgb(70,34,86);"/>
        </g>
    </g>
</svg>
