<?xml version="1.0" encoding="UTF-8" standalone="no"?>
<!DOCTYPE svg PUBLIC "-//W3C//DTD SVG 1.1//EN" "http://www.w3.org/Graphics/SVG/1.1/DTD/svg11.dtd">
<svg width="100%" height="100%" viewBox="0 0 630 630" version="1.1" xmlns="http://www.w3.org/2000/svg" xmlns:xlink="http://www.w3.org/1999/xlink" xml:space="preserve" style="fill-rule:evenodd;clip-rule:evenodd;stroke-linecap:square;stroke-linejoin:round;stroke-miterlimit:1.5;">
    <g id="background">
        <g transform="matrix(2.66667,0,0,2.66667,-4348.81,-3469.77)">
            <path d="M1867.03,1419.27C1867.03,1484.51 1814.15,1537.38 1748.92,1537.38C1683.68,1537.38 1630.8,1484.51 1630.8,1419.27C1630.8,1354.04 1683.68,1301.16 1748.92,1301.16C1814.15,1301.16 1867.03,1354.04 1867.03,1419.27" style="fill:rgb(142,28,0);fill-rule:nonzero;"/>
        </g>
        <g transform="matrix(2.66667,0,0,2.66667,-4348.81,-3469.77)">
            <path d="M1861.99,1419.27C1861.99,1481.76 1811.33,1532.42 1748.85,1532.42C1686.36,1532.42 1635.7,1481.76 1635.7,1419.27C1635.7,1356.79 1686.36,1306.13 1748.85,1306.13C1811.33,1306.13 1861.99,1356.79 1861.99,1419.27" style="fill:rgb(61,61,61);fill-rule:nonzero;"/>
        </g>
    </g>
    <g transform="matrix(1,0,0,1,0.465602,0)">
        <g id="wing">
            <g>
                <path d="M333.187,337.843L333.187,454.94C333.187,454.94 539.903,327.577 564.872,337.843C589.841,348.11 578.121,397.456 588.328,361.19C597.251,329.486 588.894,274.098 564.872,250.303C534.627,220.346 562.413,255.335 548.606,270.308C534.799,285.281 333.187,337.843 333.187,337.843Z" style="fill:rgb(142,28,0);"/>
                <g transform="matrix(-1,0,0,1,628.999,0)">
                    <path d="M333.187,337.843L333.187,454.94C333.187,454.94 539.903,327.577 564.872,337.843C589.841,348.11 578.121,397.456 588.328,361.19C597.251,329.486 588.894,274.098 564.872,250.303C534.627,220.346 562.413,255.335 548.606,270.308C534.799,285.281 333.187,337.843 333.187,337.843Z" style="fill:rgb(142,28,0);"/>
                </g>
            </g>
        </g>
    </g>
    <g id="body">
        <g transform="matrix(2.66667,0,0,2.66667,-4353.45,-3469.77)">
            <path d="M1812.26,1394.35C1812.26,1379.1 1806.73,1365.15 1797.58,1354.37C1802.26,1352.42 1805.56,1347.81 1805.56,1342.43C1805.56,1335.3 1799.78,1329.51 1792.64,1329.51C1786.34,1329.51 1781.1,1334.03 1779.96,1340C1771.18,1335.22 1761.11,1332.5 1750.41,1332.5C1739.61,1332.5 1729.47,1335.27 1720.63,1340.13C1719.54,1334.1 1714.28,1329.51 1707.93,1329.51C1700.8,1329.51 1695.01,1335.3 1695.01,1342.43C1695.01,1347.88 1698.4,1352.54 1703.17,1354.43C1694.06,1365.2 1688.56,1379.13 1688.56,1394.35L1678.12,1494.95L1823.19,1494.95L1812.26,1394.35Z" style="fill:rgb(113,112,113);fill-rule:nonzero;"/>
        </g>
        <g transform="matrix(2.66667,0,0,2.66667,-4348.81,-3469.77)">
            <path d="M1771.52,1406.87C1771.52,1417.1 1761.51,1425.4 1749.16,1425.4C1736.82,1425.4 1726.81,1417.1 1726.81,1406.87C1726.81,1396.64 1736.82,1388.35 1749.16,1388.35C1761.51,1388.35 1771.52,1396.64 1771.52,1406.87" style="fill:rgb(200,201,202);fill-rule:nonzero;"/>
        </g>
        <g transform="matrix(2.66667,0,0,2.66667,-4351.12,-3469.77)">
            <path d="M1758.1,1399.19C1758.1,1403.23 1754.48,1406.51 1750.03,1406.51C1745.57,1406.51 1741.96,1403.23 1741.96,1399.19C1741.96,1395.14 1745.57,1391.86 1750.03,1391.86C1754.48,1391.86 1758.1,1395.14 1758.1,1399.19" style="fill:rgb(113,112,113);fill-rule:nonzero;"/>
        </g>
        <g transform="matrix(2.66667,0,0,2.66667,-4353.81,-3467.77)">
            <path d="M1786.88,1344.48C1786.88,1344.48 1786.44,1333.71 1795.92,1336.66C1805.4,1339.61 1795.09,1350.82 1795.09,1350.82L1786.88,1344.48Z" style="fill:rgb(158,158,159);fill-rule:nonzero;"/>
        </g>
        <g transform="matrix(2.66667,0,0,2.66667,-4354.81,-3468.77)">
            <path d="M1714.24,1344.48C1714.24,1344.48 1714.68,1333.71 1705.2,1336.66C1695.72,1339.61 1706.03,1350.82 1706.03,1350.82L1714.24,1344.48Z" style="fill:rgb(158,158,159);fill-rule:nonzero;"/>
        </g>
    </g>
    <g id="badge">
        <g transform="matrix(2.66667,0,0,2.66667,-4348.81,-3469.77)">
            <path d="M1685.83,1515.94L1721.97,1515.94L1721.97,1505.68L1721.97,1482.28L1685.83,1482.28L1692.29,1499.11L1685.83,1515.94Z" style="fill:rgb(142,28,0);fill-rule:nonzero;"/>
        </g>
        <g transform="matrix(2.66667,0,0,2.66667,-4348.81,-3469.77)">
            <path d="M1704.73,1507.61L1721.97,1515.94L1721.97,1507.69L1704.73,1507.61Z" style="fill:rgb(99,0,0);fill-rule:nonzero;"/>
        </g>
        <g transform="matrix(2.66667,0,0,2.66667,-4348.81,-3469.77)">
            <path d="M1813.99,1515.94L1777.85,1515.94L1777.85,1505.68L1777.85,1482.28L1813.99,1482.28L1807.53,1499.11L1813.99,1515.94Z" style="fill:rgb(142,28,0);fill-rule:nonzero;"/>
        </g>
        <g transform="matrix(2.66667,0,0,2.66667,-4348.81,-3469.77)">
            <rect x="1703.9" y="1473.95" width="91.192" height="33.665" style="fill:rgb(142,28,0);fill-rule:nonzero;"/>
        </g>
        <g transform="matrix(2.66667,0,0,2.66667,-4348.81,-3469.77)">
            <path d="M1795.09,1507.61L1777.85,1515.94L1777.85,1507.69L1795.09,1507.61Z" style="fill:rgb(99,0,0);fill-rule:nonzero;"/>
        </g>
        <g transform="matrix(1,0,0,1,-16.4258,31)">
            <path d="M237.703,474.708C236.975,473.364 233.783,468.212 232.551,466.476L232.551,464.012L236.303,464.012L236.303,457.852L232.551,457.852L232.551,447.436L226.839,447.436L226.839,457.852L221.911,457.852L221.911,464.012L226.503,464.012C225.271,470.34 223.031,477.564 220.455,481.54C221.295,483.276 222.527,486.244 223.031,488.148C224.431,485.572 225.719,482.044 226.839,478.124L226.839,499.74L232.551,499.74L232.551,473.7C233.503,475.716 234.399,477.788 234.847,479.132L237.703,474.708ZM264.583,481.316C263.687,483.052 262.567,484.676 261.279,486.188C260.719,484.732 260.215,483.164 259.767,481.316L264.583,481.316ZM265.815,481.316L272.311,481.316L272.311,476.22L267.831,476.22L269.287,474.876C268.335,473.924 266.543,472.58 265.031,471.46C265.983,471.292 267.159,471.124 268.559,470.9C268.783,471.74 268.951,472.524 269.063,473.196L273.039,471.796C272.591,469.78 271.415,466.308 270.463,463.676L266.655,464.74C266.935,465.468 267.159,466.308 267.439,467.092L264.359,467.428C266.991,464.068 269.735,459.756 271.807,455.556L266.991,453.988C266.543,455.108 266.039,456.34 265.535,457.46L263.015,457.628C264.639,455.108 266.263,452.028 267.383,449.004L262.623,447.716C261.671,451.412 259.823,455.22 259.263,456.172C258.647,457.18 258.031,457.908 257.303,458.076C257.863,459.364 258.591,461.548 258.927,462.556C259.487,462.276 260.383,461.996 263.295,461.604C262.231,463.508 261.223,465.02 260.719,465.58C259.711,466.98 258.871,467.876 257.975,468.156C258.479,469.388 259.263,471.796 259.487,472.748C259.991,472.468 260.831,472.188 263.463,471.74L260.943,473.812C261.839,474.54 262.903,475.38 263.855,476.22L258.703,476.22C257.303,468.604 256.575,458.86 256.351,447.884L250.863,447.884C250.975,450.796 251.087,453.708 251.199,456.396L246.551,454.828C246.103,456.004 245.543,457.18 244.983,458.3L242.463,458.524C244.199,455.836 245.991,452.42 247.279,449.172L242.519,447.94C241.455,451.86 239.383,455.892 238.767,456.9C238.151,458.02 237.479,458.692 236.751,458.916C237.255,460.148 238.039,462.388 238.319,463.396C238.879,463.116 239.831,462.836 242.799,462.444C241.623,464.404 240.615,465.916 240.111,466.532C239.159,467.876 238.263,468.772 237.311,468.996C237.871,470.228 238.599,472.636 238.879,473.532C239.663,473.196 240.951,472.804 247.671,471.796C247.839,472.524 247.951,473.196 248.007,473.7L252.151,472.468C251.759,470.396 250.807,467.036 249.911,464.404L246.047,465.412C246.271,466.196 246.495,467.092 246.775,467.932L243.639,468.268C246.327,464.964 249.071,460.764 251.255,456.62C251.647,463.9 252.207,470.508 253.159,476.22L237.535,476.22L237.535,481.316L240.839,481.316C240.671,485.796 239.159,491.508 233.223,495.876C234.455,496.548 236.807,498.62 237.647,499.684C241.679,496.492 243.975,492.46 245.263,488.484C246.887,489.94 248.511,491.396 249.463,492.516L253.495,488.596C251.871,486.972 248.679,484.396 246.383,482.548C246.439,482.156 246.439,481.708 246.495,481.316L254.111,481.316C254.895,484.732 255.791,487.7 256.967,490.276C254.167,492.348 250.919,494.084 247.335,495.316C248.455,496.38 250.023,498.396 250.751,499.572C253.943,498.34 256.967,496.772 259.599,494.924C261.783,497.724 264.527,499.404 267.831,499.684C270.239,499.852 272.479,497.892 273.935,490.948C272.871,490.332 270.687,488.708 269.735,487.42C269.343,491.34 268.671,493.356 267.607,493.244C266.319,493.076 265.199,492.404 264.135,491.228C266.599,488.82 268.671,486.076 270.295,482.996L265.815,481.316Z" style="fill:rgb(235,235,235);fill-rule:nonzero;"/>
            <path d="M311.175,492.684L311.175,487.812L317.783,487.812L317.783,492.684L311.175,492.684ZM294.823,492.684L288.887,492.684L288.887,487.812L294.823,487.812L294.823,492.684ZM294.375,460.316L287.543,460.316L287.543,455.332L294.375,455.332L294.375,460.316ZM311.343,455.332L318.679,455.332L318.679,460.316L311.343,460.316L311.343,455.332ZM328.759,476.276L328.759,470.508L319.407,470.508L320.863,469.052C319.575,468.044 317.503,466.868 315.487,465.916L325.063,465.916L325.063,449.732L305.351,449.732L305.351,465.916L311.343,465.916L309.047,468.1C310.671,468.716 312.463,469.612 314.031,470.508L302.383,470.508C303.279,469.052 304.175,467.54 304.903,465.972L300.647,465.188L300.647,449.732L281.607,449.732L281.607,465.916L297.735,465.916C296.951,467.484 295.943,468.996 294.767,470.508L278.079,470.508L278.079,476.276L288.719,476.276C285.527,478.628 281.607,480.756 276.847,482.492C278.135,483.668 279.815,486.132 280.375,487.7C281.215,487.364 281.999,487.028 282.783,486.636L282.783,499.796L288.887,499.796L288.887,498.452L294.823,498.452L294.823,499.46L301.207,499.46L301.207,482.1L290.903,482.1C293.479,480.308 295.775,478.348 297.791,476.276L307.591,476.276C309.551,478.404 311.903,480.42 314.479,482.1L305.071,482.1L305.071,499.796L311.175,499.796L311.175,498.452L317.783,498.452L317.783,499.46L324.223,499.46L324.223,486.972C324.783,487.196 325.399,487.364 325.959,487.532C326.855,485.908 328.647,483.444 330.103,482.212C325.007,480.98 320.079,478.908 316.215,476.276L328.759,476.276Z" style="fill:rgb(235,235,235);fill-rule:nonzero;"/>
            <path d="M384.255,469.332L384.255,462.444L362.247,462.444C362.807,457.236 362.863,452.084 362.919,447.492L355.639,447.492C355.583,452.084 355.639,457.18 355.079,462.444L334.695,462.444L334.695,469.332L353.959,469.332C351.775,478.964 346.455,488.26 333.631,493.972C335.591,495.372 337.551,497.78 338.615,499.628C350.487,493.916 356.535,485.18 359.559,475.828C363.927,486.636 370.423,494.812 380.559,499.572C381.623,497.668 383.807,494.7 385.487,493.3C375.015,489.044 368.239,480.252 364.543,469.332L384.255,469.332Z" style="fill:rgb(235,235,235);fill-rule:nonzero;"/>
            <path d="M413.207,473.868L413.207,468.324L420.095,468.324L420.095,473.868L413.207,473.868ZM433.647,468.324L433.647,473.868L426.703,473.868L426.703,473.196L426.703,468.324L433.647,468.324ZM440.031,479.244L440.031,462.892L426.703,462.892L426.703,458.972L441.543,458.972L441.543,452.924L426.703,452.924L426.703,447.828L420.095,447.828L420.095,452.924L406.431,452.924C406.935,451.692 407.439,450.516 407.943,449.34L401.783,447.324C398.759,455.276 393.551,463.172 388.231,468.212C389.351,469.836 391.143,473.42 391.759,475.044C393.327,473.476 394.839,471.684 396.351,469.78L396.351,499.852L402.679,499.852L402.679,460.26C403.911,458.132 405.031,455.948 406.039,453.82L406.039,458.972L420.095,458.972L420.095,462.892L407.215,462.892L407.215,479.244L419.703,479.244C419.367,481.54 418.751,483.612 417.631,485.628C415.559,483.948 413.767,482.044 412.423,479.86L406.991,481.54C408.895,484.732 411.135,487.588 413.879,489.884C411.471,491.732 408.167,493.188 403.687,494.196C405.031,495.596 406.991,498.284 407.831,499.74C412.815,498.284 416.623,496.212 419.311,493.748C424.519,496.716 430.903,498.676 438.463,499.628C439.303,497.892 441.039,495.148 442.439,493.692C434.879,493.02 428.439,491.452 423.287,488.988C424.967,486.02 425.919,482.716 426.367,479.244L440.031,479.244Z" style="fill:rgb(235,235,235);fill-rule:nonzero;"/>
        </g>
    </g>
    <g id="eyes" transform="matrix(1,0,0,1,-0.415535,0)">
        <g id="eye">
            <g transform="matrix(1,0,0,1,-162.121,-0.232632)">
                <circle cx="397.502" cy="199.401" r="33.1" style="fill:rgb(89,87,87);"/>
            </g>
            <g transform="matrix(1.10273,0,0,1.10273,-27.0161,-24.643)">
                <circle cx="237.952" cy="202.961" r="21.104" style="fill:rgb(235,235,235);"/>
            </g>
        </g>
        <g id="eye1" transform="matrix(1,0,0,1,160,0)">
            <g transform="matrix(1,0,0,1,-162.121,-0.232632)">
                <circle cx="397.502" cy="199.401" r="33.1" style="fill:rgb(89,87,87);"/>
            </g>
            <g transform="matrix(1.10273,0,0,1.10273,-27.0161,-24.643)">
                <circle cx="237.952" cy="202.961" r="21.104" style="fill:rgb(235,235,235);"/>
            </g>
        </g>
    </g>
    <g id="tatoo.28.x" transform="matrix(1,0,0,1,-0.431182,0)">
        <g>
            <g transform="matrix(1,0,0,1,-2.06628,0)">
                <path d="M397.946,229.701L397.946,279.472L422.117,290.279L422.117,337.243" style="fill:none;stroke:rgb(89,87,87);stroke-width:10px;"/>
            </g>
            <g transform="matrix(1,0,0,1,378.939,142.541)">
                <circle cx="31.839" cy="100.599" r="4.998" style="fill:rgb(89,87,87);"/>
            </g>
            <g transform="matrix(1,0,0,1,378.939,168.541)">
                <circle cx="31.839" cy="100.599" r="4.998" style="fill:rgb(89,87,87);"/>
            </g>
            <g transform="matrix(1,0,0,1,400.939,199.541)">
                <circle cx="31.839" cy="100.599" r="4.998" style="fill:rgb(89,87,87);"/>
            </g>
        </g>
        <g transform="matrix(-1,0,0,1,630.793,0)">
            <g transform="matrix(1,0,0,1,-2.06628,0)">
                <path d="M397.946,229.701L397.946,279.472L422.117,290.279L422.117,337.243" style="fill:none;stroke:rgb(89,87,87);stroke-width:10px;"/>
            </g>
            <g transform="matrix(1,0,0,1,378.939,142.541)">
                <circle cx="31.839" cy="100.599" r="4.998" style="fill:rgb(89,87,87);"/>
            </g>
            <g transform="matrix(1,0,0,1,378.939,168.541)">
                <circle cx="31.839" cy="100.599" r="4.998" style="fill:rgb(89,87,87);"/>
            </g>
            <g transform="matrix(1,0,0,1,400.939,199.541)">
                <circle cx="31.839" cy="100.599" r="4.998" style="fill:rgb(89,87,87);"/>
            </g>
        </g>
    </g>
    <g id="v" transform="matrix(1.31262,0,0,1.31262,-100.644,-138.742)">
        <g transform="matrix(1,0,0,1,2,0)">
            <path d="M319.601,370.527L319.601,443.803L424.952,430.668L440.356,355.368L481.65,337.45L411.762,337.45L387.262,370.527" style="fill:rgb(222,16,0);"/>
        </g>
        <g transform="matrix(-1,0,0,1,631.251,0)">
            <path d="M319.601,370.527L319.601,443.803L424.952,430.668L440.356,355.368L481.65,337.45L411.762,337.45L387.262,370.527" style="fill:rgb(222,16,0);"/>
        </g>
    </g>
    <g id="mouth" transform="matrix(1,0,0,1,0.868021,0)">
        <path d="M350.014,331.483L342.681,331.483L342.681,301.019L285.514,301.019L285.514,331.483L278.181,331.483L278.181,293.686L350.014,293.686L350.014,331.483Z" style="fill:rgb(113,112,113);"/>
    </g>
    <g id="OCF" transform="matrix(1.70421,0.37834,-0.37834,1.70421,-226.116,-180.742)">
        <g transform="matrix(0.687793,-0.245179,0.245179,0.687793,79.7472,109.898)">
            <path d="M358.671,45.716C375.289,51.64 383.971,69.941 378.047,86.559C372.123,103.177 353.822,111.86 337.204,105.936C320.585,100.012 311.903,81.711 317.827,65.092C323.751,48.474 342.052,39.792 358.671,45.716ZM354.483,57.462C364.619,61.075 369.914,72.237 366.301,82.372C362.688,92.507 351.526,97.803 341.391,94.19C331.255,90.577 325.96,79.415 329.573,69.28C333.186,59.144 344.348,53.849 354.483,57.462Z" style="fill:rgb(235,235,235);"/>
        </g>
        <g transform="matrix(1,0,0,1,292.359,32.3776)">
            <path d="M90.772,66.479C88.422,67.275 85.905,67.707 83.287,67.707C70.405,67.707 59.946,57.248 59.946,44.366C59.946,31.483 70.405,21.025 83.287,21.025C85.905,21.025 88.422,21.456 90.772,22.252L90.772,66.479Z" style="fill:rgb(235,235,235);"/>
        </g>
        <g transform="matrix(0.835802,1.62185e-16,-2.02822e-16,1.34199,300.711,6.01471)">
            <rect x="61.324" y="43.199" width="11.193" height="29.742" style="fill:rgb(235,235,235);"/>
        </g>
    </g>
</svg>
