<svg class="ldi-wwvl1i" width="360px"  height="360px"  xmlns="http://www.w3.org/2000/svg" xmlns:xlink="http://www.w3.org/1999/xlink" viewBox="0 0 100 100" preserveAspectRatio="xMidYMid" style="background: none;"><!--?xml version="1.0" encoding="utf-8"?--><!--Generator: Adobe Illustrator 21.0.0, SVG Export Plug-In . SVG Version: 6.00 Build 0)--><svg version="1.1" id="Layer_1" xmlns="http://www.w3.org/2000/svg" xmlns:xlink="http://www.w3.org/1999/xlink" x="0px" y="0px" viewBox="0 0 100 100" style="transform-origin: 50px 50px 0px;" xml:space="preserve" class=""><g class="" style="transform-origin: 50px 50px 0px; transform: scale(1);"><g class="" style="transform-origin: 50px 50px 0px; animation-duration: 1s; animation-delay: -1s;"><style type="text/css" class="ld ld-rubber" style="transform-origin: 50px 50px 0px; animation-duration: 1s; animation-delay: -1s;">.st0{fill:#8E201C;} .st1{fill:#3E3E3E;} .st2{fill:#727172;} .st3{fill:#C8C9CA;} .st4{fill:#9E9E9F;} .st5{fill:#610D0D;} .st6{fill:#EBEBEB;} .st7{fill:#5A5858;} .st8{fill:#DC1F26;}</style><g class="ld ld-rubber" style="transform-origin: 50px 50px 0px; animation-duration: 1s; animation-delay: -0.978261s;"><path class="st0" d="M89.9,50c0,22.1-17.9,40-40,40s-40-17.9-40-40s17.9-40,40-40S89.9,27.8,89.9,50" fill="rgb(142, 32, 28)" style="fill: rgb(142, 32, 28);"></path></g><g class="ld ld-rubber" style="transform-origin: 50px 50px 0px; animation-duration: 1s; animation-delay: -0.956522s;"><path class="st1" d="M88.3,50c0,21.1-17.1,38.4-38.4,38.4c-21.1,0-38.4-17.1-38.4-38.4c0-21.1,17.1-38.4,38.4-38.4 S88.3,28.9,88.3,50" fill="rgb(62, 62, 62)" style="fill: rgb(62, 62, 62);"></path></g><g class="ld ld-rubber" style="transform-origin: 50px 50px 0px; animation-duration: 1s; animation-delay: -0.934783s;"><path class="st0" d="M52.4,52.9v14.9c0,0,26.3-16.2,29.4-14.9c3.2,1.3,1.7,7.6,3,3c1.1-4,0.1-11.1-3-14.1c-3.8-3.8-0.3,0.6-2.1,2.5 S52.4,52.9,52.4,52.9z" fill="rgb(142, 32, 28)" style="fill: rgb(142, 32, 28);"></path></g><g class="ld ld-rubber" style="transform-origin: 50px 50px 0px; animation-duration: 1s; animation-delay: -0.913043s;"><path class="st0" d="M47.7,52.9v14.9c0,0-26.3-16.2-29.4-14.9c-3.2,1.3-1.7,7.6-3,3c-1.1-4-0.1-11.1,3-14.1c3.8-3.8,0.3,0.6,2.1,2.5 C22.1,46.2,47.7,52.9,47.7,52.9z" fill="rgb(142, 32, 28)" style="fill: rgb(142, 32, 28);"></path></g><g class="ld ld-rubber" style="transform-origin: 50px 50px 0px; animation-duration: 1s; animation-delay: -0.891304s;"><path class="st2" d="M70.8,41.4c0-5.1-1.9-9.9-5.1-13.6c1.6-0.5,2.7-2.1,2.7-4c0-2.4-1.9-4.3-4.3-4.3c-2.1,0-4,1.6-4.3,3.5 c-2.9-1.6-6.4-2.7-10.1-2.7s-7.2,1.1-10.1,2.7c-0.3-2.1-2.1-3.5-4.3-3.5c-2.4,0-4.3,1.9-4.3,4.3c0,1.9,1.1,3.5,2.7,4 c-3.2,3.7-5.1,8.3-5.1,13.6l-3.5,34.1h49.1L70.8,41.4z" fill="rgb(114, 113, 114)" style="fill: rgb(114, 113, 114);"></path></g><g class="ld ld-rubber" style="transform-origin: 50px 50px 0px; animation-duration: 1s; animation-delay: -0.869565s;"><path class="st3" d="M57.6,45.7c0,3.5-3.5,6.4-7.5,6.4c-4.3,0-7.5-2.9-7.5-6.4s3.5-6.4,7.5-6.4C54.1,39.6,57.6,42.2,57.6,45.7" fill="rgb(200, 201, 202)" style="fill: rgb(200, 201, 202);"></path></g><g class="ld ld-rubber" style="transform-origin: 50px 50px 0px; animation-duration: 1s; animation-delay: -0.847826s;"><path class="st2" d="M52.9,43.3c0,1.3-1.3,2.4-2.7,2.4c-1.6,0-2.7-1.1-2.7-2.4c0-1.3,1.3-2.4,2.7-2.4C51.6,40.6,52.9,41.7,52.9,43.3 " fill="rgb(114, 113, 114)" style="fill: rgb(114, 113, 114);"></path></g><g class="ld ld-rubber" style="transform-origin: 50px 50px 0px; animation-duration: 1s; animation-delay: -0.826087s;"><path class="st4" d="M62.2,25c0,0-0.3-3.7,2.9-2.7c3.2,1.1-0.3,4.8-0.3,4.8L62.2,25z" fill="#9e9e9f" style="fill: rgb(158, 158, 159);"></path></g><g class="ld ld-rubber" style="transform-origin: 50px 50px 0px; animation-duration: 1s; animation-delay: -0.804348s;"><path class="st4" d="M37.5,24.8c0,0,0.3-3.7-2.9-2.7c-3.2,1.1,0.3,4.8,0.3,4.8L37.5,24.8z" fill="#9e9e9f" style="fill: rgb(158, 158, 159);"></path></g><g class="ld ld-rubber" style="transform-origin: 50px 50px 0px; animation-duration: 1s; animation-delay: -0.782609s;"><path class="st0" d="M28.5,82.8h12.3v-3.5v-8H28.5l2.1,5.6L28.5,82.8z" fill="rgb(142, 32, 28)" style="fill: rgb(142, 32, 28);"></path></g><g class="ld ld-rubber" style="transform-origin: 50px 50px 0px; animation-duration: 1s; animation-delay: -0.76087s;"><path class="st5" d="M34.9,79.8l5.9,2.9v-2.7L34.9,79.8z" fill="#610d0d" style="fill: rgb(97, 13, 13);"></path></g><g class="ld ld-rubber" style="transform-origin: 50px 50px 0px; animation-duration: 1s; animation-delay: -0.73913s;"><path class="st0" d="M72,82.8H59.7v-3.5v-8H72l-2.1,5.6L72,82.8z" fill="rgb(142, 32, 28)" style="fill: rgb(142, 32, 28);"></path></g><g class="ld ld-rubber" style="transform-origin: 50px 50px 0px; animation-duration: 1s; animation-delay: -0.717391s;"><rect x="34.7" y="68.6" class="st0" width="30.9" height="11.5" fill="rgb(142, 32, 28)" style="fill: rgb(142, 32, 28);"></rect></g><g class="ld ld-rubber" style="transform-origin: 50px 50px 0px; animation-duration: 1s; animation-delay: -0.695652s;"><path class="st5" d="M65.6,79.8l-5.9,2.9v-2.7L65.6,79.8z" fill="#610d0d" style="fill: rgb(97, 13, 13);"></path></g><g class="ld ld-rubber" style="transform-origin: 50px 50px 0px; animation-duration: 1s; animation-delay: -0.673913s;"><path class="st6" d="M38.1,74.2c-0.1-0.2-0.5-0.8-0.7-1v-0.3h0.5v-0.8h-0.5v-1.3h-0.7v1.3h-0.6v0.8h0.6c-0.2,0.8-0.4,1.7-0.8,2.2 c0.1,0.2,0.3,0.6,0.3,0.8c0.2-0.3,0.3-0.8,0.5-1.3v2.7h0.7V74c0.1,0.3,0.2,0.5,0.3,0.7L38.1,74.2z M41.5,75.1 c-0.1,0.2-0.3,0.4-0.4,0.6c-0.1-0.2-0.1-0.4-0.2-0.6H41.5z M41.7,75.1h0.8v-0.6h-0.6l0.2-0.2c-0.1-0.1-0.3-0.3-0.5-0.4 c0.1,0,0.3,0,0.4-0.1c0,0.1,0,0.2,0.1,0.3l0.5-0.2c-0.1-0.3-0.2-0.7-0.3-1L41.8,73c0,0.1,0.1,0.2,0.1,0.3h-0.4 c0.3-0.4,0.7-1,0.9-1.5l-0.6-0.2c-0.1,0.1-0.1,0.3-0.2,0.4h-0.3c0.2-0.3,0.4-0.7,0.6-1.1l-0.6-0.2c-0.1,0.5-0.4,1-0.4,1.1 c-0.1,0.1-0.2,0.2-0.2,0.2c0.1,0.2,0.2,0.4,0.2,0.6c0.1,0,0.2-0.1,0.6-0.1c-0.1,0.2-0.3,0.4-0.3,0.5c-0.1,0.2-0.2,0.3-0.3,0.3 c0.1,0.2,0.2,0.5,0.2,0.6c0.1,0,0.2-0.1,0.5-0.1l-0.3,0.3c0.1,0.1,0.2,0.2,0.4,0.3H41c-0.2-1-0.3-2.2-0.3-3.6H40c0,0.4,0,0.7,0,1.1 l-0.6-0.2c-0.1,0.1-0.1,0.3-0.2,0.4h-0.3c0.2-0.3,0.4-0.8,0.6-1.2l-0.6-0.2c-0.1,0.5-0.4,1-0.5,1.1s-0.2,0.2-0.3,0.3 c0.1,0.2,0.2,0.4,0.2,0.6c0.1,0,0.2-0.1,0.6-0.1c-0.1,0.2-0.3,0.4-0.3,0.5c-0.1,0.2-0.2,0.3-0.4,0.3c0.1,0.2,0.2,0.5,0.2,0.6 c0.1,0,0.3-0.1,1.1-0.2c0,0.1,0,0.2,0,0.2l0.5-0.2c0-0.3-0.2-0.7-0.3-1L39.2,73c0,0.1,0.1,0.2,0.1,0.3h-0.4c0.3-0.4,0.7-1,1-1.5 c0,0.9,0.1,1.8,0.2,2.5h-2v0.6h0.4c0,0.6-0.2,1.3-1,1.8c0.2,0.1,0.5,0.3,0.6,0.5c0.5-0.4,0.8-0.9,1-1.4c0.2,0.2,0.4,0.4,0.5,0.5 l0.5-0.5c-0.2-0.2-0.6-0.5-0.9-0.8c0,0,0-0.1,0-0.2h1c0.1,0.4,0.2,0.8,0.4,1.1c-0.4,0.3-0.8,0.5-1.2,0.6c0.1,0.1,0.3,0.4,0.4,0.5 c0.4-0.2,0.8-0.4,1.1-0.6c0.3,0.4,0.6,0.6,1,0.6c0.3,0,0.6-0.2,0.8-1.1c-0.1-0.1-0.4-0.3-0.5-0.4c0,0.5-0.1,0.8-0.3,0.7 c-0.2,0-0.3-0.1-0.4-0.3c0.3-0.3,0.6-0.7,0.8-1L41.7,75.1z" fill="#ebebeb" style="fill: rgb(235, 235, 235);"></path></g><g class="ld ld-rubber" style="transform-origin: 50px 50px 0px; animation-duration: 1s; animation-delay: -0.652174s;"><path class="st6" d="M47.5,76.5v-0.6h0.8v0.6H47.5z M45.4,76.5h-0.8v-0.6h0.8V76.5z M45.3,72.4h-0.9v-0.6h0.9V72.4z M47.5,71.8h0.9 v0.6h-0.9V71.8z M49.7,74.4v-0.7h-1.2l0.2-0.2c-0.2-0.1-0.4-0.3-0.7-0.4h1.2V71h-2.5v2.1h0.8l-0.3,0.3c0.2,0.1,0.4,0.2,0.6,0.3h-1.5 c0.1-0.2,0.2-0.4,0.3-0.6L46.1,73v-2h-2.4v2.1h2c-0.1,0.2-0.2,0.4-0.4,0.6h-2.1v0.7h1.4c-0.4,0.3-0.9,0.6-1.5,0.8 c0.2,0.1,0.4,0.5,0.4,0.7c0.1,0,0.2-0.1,0.3-0.1v1.7h0.8v-0.2h0.8v0.1h0.8v-2.2h-1.3c0.3-0.2,0.6-0.5,0.9-0.7H47 c0.2,0.3,0.5,0.5,0.9,0.7h-1.2v2.2h0.8v-0.2h0.8v0.1h0.8v-1.6c0.1,0,0.1,0,0.2,0.1c0.1-0.2,0.3-0.5,0.5-0.7 c-0.6-0.2-1.3-0.4-1.8-0.8h1.7V74.4z" fill="#ebebeb" style="fill: rgb(235, 235, 235);"></path></g><g class="ld ld-rubber" style="transform-origin: 50px 50px 0px; animation-duration: 1s; animation-delay: -0.630435s;"><path class="st6" d="M56.7,73.5v-0.9h-2.8c0.1-0.7,0.1-1.3,0.1-1.9h-0.9c0,0.6,0,1.2-0.1,1.9h-2.6v0.9h2.4c-0.3,1.2-1,2.4-2.6,3.1 c0.2,0.2,0.5,0.5,0.6,0.7c1.5-0.7,2.3-1.8,2.7-3c0.6,1.4,1.4,2.4,2.7,3c0.1-0.2,0.4-0.6,0.6-0.8c-1.3-0.5-2.2-1.7-2.7-3H56.7z" fill="#ebebeb" style="fill: rgb(235, 235, 235);"></path></g><g class="ld ld-rubber" style="transform-origin: 50px 50px 0px; animation-duration: 1s; animation-delay: -0.608696s;"><path class="st6" d="M60.4,74.1v-0.7h0.9v0.7H60.4z M63,73.4v0.7h-0.9V74v-0.6H63z M63.8,74.8v-2.1h-1.7v-0.5H64v-0.8h-1.9v-0.6 h-0.8v0.6h-1.7c0.1-0.2,0.1-0.3,0.2-0.5L59,70.6c-0.4,1-1,2-1.7,2.7c0.1,0.2,0.4,0.7,0.4,0.9c0.2-0.2,0.4-0.4,0.6-0.7v3.8h0.8v-5 c0.2-0.3,0.3-0.5,0.4-0.8v0.7h1.8v0.5h-1.7v2.1h1.6c0,0.3-0.1,0.6-0.3,0.8c-0.3-0.2-0.5-0.5-0.7-0.7l-0.6,0.2 c0.2,0.4,0.5,0.8,0.9,1.1c-0.3,0.2-0.7,0.4-1.3,0.5c0.2,0.2,0.4,0.5,0.5,0.7c0.6-0.2,1.1-0.4,1.5-0.8c0.7,0.4,1.5,0.6,2.4,0.7 c0.1-0.2,0.3-0.6,0.5-0.8c-1-0.1-1.8-0.3-2.4-0.6c0.2-0.4,0.3-0.8,0.4-1.2L63.8,74.8L63.8,74.8z" fill="#ebebeb" style="fill: rgb(235, 235, 235);"></path></g><g class="ld ld-rubber" style="transform-origin: 50px 50px 0px; animation-duration: 1s; animation-delay: -0.586957s;"><circle class="st7" cx="39.9" cy="35.3" r="4.2" fill="#5a5858" style="fill: rgb(90, 88, 88);"></circle></g><g class="ld ld-rubber" style="transform-origin: 50px 50px 0px; animation-duration: 1s; animation-delay: -0.565217s;"><circle class="st6" cx="39.8" cy="35.2" r="3" fill="#ebebeb" style="fill: rgb(235, 235, 235);"></circle></g><g class="ld ld-rubber" style="transform-origin: 50px 50px 0px; animation-duration: 1s; animation-delay: -0.543478s;"><circle class="st7" cx="60.2" cy="35.3" r="4.2" fill="#5a5858" style="fill: rgb(90, 88, 88);"></circle></g><g class="ld ld-rubber" style="transform-origin: 50px 50px 0px; animation-duration: 1s; animation-delay: -0.521739s;"><circle class="st6" cx="60.1" cy="35.2" r="3" fill="#ebebeb" style="fill: rgb(235, 235, 235);"></circle></g><g class="ld ld-rubber" style="transform-origin: 50px 50px 0px; animation-duration: 1s; animation-delay: -0.5s;"><path class="st7" d="M63.7,53.3h-0.8v-6.1L60,45.9c-0.1-0.1-0.2-0.2-0.2-0.4v-6.7h0.8v6.4l2.9,1.3c0.1,0.1,0.2,0.2,0.2,0.4 C63.7,46.9,63.7,53.3,63.7,53.3z" fill="#5a5858" style="fill: rgb(90, 88, 88);"></path></g><g class="ld ld-rubber" style="transform-origin: 50px 50px 0px; animation-duration: 1s; animation-delay: -0.478261s;"><circle class="st7" cx="62.1" cy="40.8" r="0.6" fill="#5a5858" style="fill: rgb(90, 88, 88);"></circle></g><g class="ld ld-rubber" style="transform-origin: 50px 50px 0px; animation-duration: 1s; animation-delay: -0.456522s;"><circle class="st7" cx="62.1" cy="44.1" r="0.6" fill="#5a5858" style="fill: rgb(90, 88, 88);"></circle></g><g class="ld ld-rubber" style="transform-origin: 50px 50px 0px; animation-duration: 1s; animation-delay: -0.434783s;"><circle class="st7" cx="64.9" cy="48.1" r="0.6" fill="#5a5858" style="fill: rgb(90, 88, 88);"></circle></g><g class="ld ld-rubber" style="transform-origin: 50px 50px 0px; animation-duration: 1s; animation-delay: -0.413043s;"><path class="st7" d="M37,53.3h-0.8v-6.4c0-0.2,0.1-0.3,0.2-0.4l2.9-1.3v-6.4h0.8v6.7c0,0.2-0.1,0.3-0.2,0.4L37,47.2V53.3z" fill="#5a5858" style="fill: rgb(90, 88, 88);"></path></g><g class="ld ld-rubber" style="transform-origin: 50px 50px 0px; animation-duration: 1s; animation-delay: -0.391304s;"><circle class="st7" cx="37.8" cy="40.8" r="0.6" fill="#5a5858" style="fill: rgb(90, 88, 88);"></circle></g><g class="ld ld-rubber" style="transform-origin: 50px 50px 0px; animation-duration: 1s; animation-delay: -0.369565s;"><circle class="st7" cx="37.8" cy="44.1" r="0.6" fill="#5a5858" style="fill: rgb(90, 88, 88);"></circle></g><g class="ld ld-rubber" style="transform-origin: 50px 50px 0px; animation-duration: 1s; animation-delay: -0.347826s;"><circle class="st7" cx="35" cy="48.1" r="0.6" fill="#5a5858" style="fill: rgb(90, 88, 88);"></circle></g><g class="ld ld-rubber" style="transform-origin: 50px 50px 0px; animation-duration: 1s; animation-delay: -0.326087s;"><path class="st8" d="M50.8,54.1v12.2l17.6-2.2L71,51.5l6.8-3H66.2L62.1,54" fill="#dc1f26" style="fill: rgb(220, 31, 38);"></path></g><g class="ld ld-rubber" style="transform-origin: 50px 50px 0px; animation-duration: 1s; animation-delay: -0.304348s;"><path class="st8" d="M49.2,54.1v12.2l-17.6-2.2L29,51.5l-6.8-3h11.7l4.1,5.5" fill="#dc1f26" style="fill: rgb(220, 31, 38);"></path></g><g class="ld ld-rubber" style="transform-origin: 50px 50px 0px; animation-duration: 1s; animation-delay: -0.282609s;"><path class="st2" d="M54.6,52.1h-0.9v-3.9h-7.3v3.9h-0.9v-4.8h9.1C54.6,47.3,54.6,52.1,54.6,52.1z" fill="rgb(114, 113, 114)" style="fill: rgb(114, 113, 114);"></path></g><g class="ld ld-rubber" style="transform-origin: 50px 50px 0px; animation-duration: 1s; animation-delay: -0.26087s;"><path class="st6" d="M51.8,14.8c-2.8-0.6-5.6,1.1-6.2,3.9c-0.6,2.8,1.1,5.6,3.9,6.2c2.8,0.6,5.6-1.1,6.2-3.9 C56.3,18.2,54.6,15.4,51.8,14.8z M53.7,20.6c-0.4,1.7-2.1,2.8-3.8,2.4s-2.8-2.1-2.4-3.8c0.4-1.7,2.1-2.8,3.8-2.4 C53.1,17.2,54.1,18.9,53.7,20.6z" fill="#ebebeb" style="fill: rgb(235, 235, 235);"></path></g><g class="ld ld-rubber" style="transform-origin: 50px 50px 0px; animation-duration: 1s; animation-delay: -0.23913s;"><path class="st6" d="M59.5,26.9c-0.5,0.1-1.1,0-1.7-0.1c-2.8-0.6-4.5-3.4-3.9-6.2s3.4-4.5,6.2-3.9c0.6,0.1,1.1,0.3,1.6,0.6 L59.5,26.9z" fill="#ebebeb" style="fill: rgb(235, 235, 235);"></path></g><g class="ld ld-rubber" style="transform-origin: 50px 50px 0px; animation-duration: 1s; animation-delay: -0.217391s;"><polygon class="st6" points="52.8,29.1 54.7,15.3 56,15.7 54.1,29.5 " fill="#ebebeb" style="fill: rgb(235, 235, 235);"></polygon></g><metadata xmlns:d="https://loading.io/stock/" class="ld ld-rubber" style="transform-origin: 50px 50px 0px; animation-duration: 1s; animation-delay: -0.195652s;">
<d:name class="ld ld-rubber" style="transform-origin: 50px 50px 0px; animation-duration: 1s; animation-delay: -0.173913s;">ya0h</d:name>
<d:tags class="ld ld-rubber" style="transform-origin: 50px 50px 0px; animation-duration: 1s; animation-delay: -0.152174s;">ambassador,robot,ya0h,misc</d:tags>
<d:license class="ld ld-rubber" style="transform-origin: 50px 50px 0px; animation-duration: 1s; animation-delay: -0.130435s;">cc-by</d:license>
<d:slug class="ld ld-rubber" style="transform-origin: 50px 50px 0px; animation-duration: 1s; animation-delay: -0.108696s;">wwvl1i</d:slug>
</metadata></g></g><style type="text/css" class="ld ld-rubber" style="transform-origin: 50px 50px 0px; animation-duration: 1s; animation-delay: -0.0869565s;">path,ellipse,circle,rect,polygon,polyline,line { stroke-width: 0; }@keyframes ld-rubber {
  0% {
    -webkit-transform: scale(1, 1);
    transform: scale(1, 1);
  }
  20% {
    -webkit-transform: scale(1.5, 1);
    transform: scale(1.5, 1);
  }
  30% {
    -webkit-transform: scale(0.8, 1);
    transform: scale(0.8, 1);
  }
  40% {
    -webkit-transform: scale(1.3, 1);
    transform: scale(1.3, 1);
  }
  50% {
    -webkit-transform: scale(0.85, 1);
    transform: scale(0.85, 1);
  }
  60% {
    -webkit-transform: scale(1.2, 1);
    transform: scale(1.2, 1);
  }
  70% {
    -webkit-transform: scale(0.9, 1);
    transform: scale(0.9, 1);
  }
  80% {
    -webkit-transform: scale(1.1, 1);
    transform: scale(1.1, 1);
  }
  90% {
    -webkit-transform: scale(0.95, 1);
    transform: scale(0.95, 1);
  }
  100% {
    -webkit-transform: scale(1, 1);
    transform: scale(1, 1);
  }
}
@-webkit-keyframes ld-rubber {
  0% {
    -webkit-transform: scale(1, 1);
    transform: scale(1, 1);
  }
  20% {
    -webkit-transform: scale(1.5, 1);
    transform: scale(1.5, 1);
  }
  30% {
    -webkit-transform: scale(0.8, 1);
    transform: scale(0.8, 1);
  }
  40% {
    -webkit-transform: scale(1.3, 1);
    transform: scale(1.3, 1);
  }
  50% {
    -webkit-transform: scale(0.85, 1);
    transform: scale(0.85, 1);
  }
  60% {
    -webkit-transform: scale(1.2, 1);
    transform: scale(1.2, 1);
  }
  70% {
    -webkit-transform: scale(0.9, 1);
    transform: scale(0.9, 1);
  }
  80% {
    -webkit-transform: scale(1.1, 1);
    transform: scale(1.1, 1);
  }
  90% {
    -webkit-transform: scale(0.95, 1);
    transform: scale(0.95, 1);
  }
  100% {
    -webkit-transform: scale(1, 1);
    transform: scale(1, 1);
  }
}
.ld.ld-rubber {
  -webkit-animation: ld-rubber 1s ease-out infinite;
  animation: ld-rubber 1s ease-out infinite;
}
</style></svg></svg>